{
	"asset":{
		"generator":"Khronos glTF Blender I/O v4.3.47",
		"version":"2.0"
	},
	"extensionsUsed":[
		"KHR_materials_specular",
		"KHR_materials_ior"
	],
	"scene":0,
	"scenes":[
		{
			"name":"Scene",
			"nodes":[
				0
			]
		}
	],
	"nodes":[
		{
			"mesh":0,
			"name":"Doctor Blender Character Blender",
			"rotation":[
				0.7071068286895752,
				0,
				0,
				0.7071068286895752
			]
		}
	],
	"materials":[
		{
			"doubleSided":true,
			"extensions":{
				"KHR_materials_specular":{
					"specularTexture":{
						"index":0
					}
				},
				"KHR_materials_ior":{
					"ior":1
				}
			},
			"name":"Body",
			"normalTexture":{
				"index":1,
				"scale":0
			},
			"pbrMetallicRoughness":{
				"baseColorTexture":{
					"index":2
				},
				"metallicFactor":0,
				"metallicRoughnessTexture":{
					"index":3
				}
			}
		},
		{
			"doubleSided":true,
			"extensions":{
				"KHR_materials_specular":{
					"specularTexture":{
						"index":4
					}
				},
				"KHR_materials_ior":{
					"ior":1
				}
			},
			"name":"Top",
			"normalTexture":{
				"index":5,
				"scale":0
			},
			"pbrMetallicRoughness":{
				"baseColorTexture":{
					"index":6
				},
				"metallicFactor":0,
				"metallicRoughnessTexture":{
					"index":7
				}
			}
		},
		{
			"doubleSided":true,
			"extensions":{
				"KHR_materials_specular":{
					"specularTexture":{
						"index":8
					}
				},
				"KHR_materials_ior":{
					"ior":1
				}
			},
			"name":"Shoes",
			"normalTexture":{
				"index":9,
				"scale":0
			},
			"pbrMetallicRoughness":{
				"baseColorTexture":{
					"index":10
				},
				"metallicFactor":0,
				"metallicRoughnessTexture":{
					"index":11
				}
			}
		},
		{
			"doubleSided":true,
			"extensions":{
				"KHR_materials_specular":{
					"specularTexture":{
						"index":12
					}
				},
				"KHR_materials_ior":{
					"ior":1
				}
			},
			"name":"Hat",
			"normalTexture":{
				"index":13,
				"scale":0
			},
			"pbrMetallicRoughness":{
				"baseColorTexture":{
					"index":14
				},
				"metallicFactor":0,
				"metallicRoughnessTexture":{
					"index":15
				}
			}
		},
		{
			"doubleSided":true,
			"extensions":{
				"KHR_materials_specular":{
					"specularTexture":{
						"index":16
					}
				},
				"KHR_materials_ior":{
					"ior":1
				}
			},
			"name":"Bottom",
			"normalTexture":{
				"index":17,
				"scale":0
			},
			"pbrMetallicRoughness":{
				"baseColorTexture":{
					"index":18
				},
				"metallicFactor":0,
				"metallicRoughnessTexture":{
					"index":19
				}
			}
		},
		{
			"doubleSided":true,
			"extensions":{
				"KHR_materials_specular":{
					"specularTexture":{
						"index":20
					}
				},
				"KHR_materials_ior":{
					"ior":1
				}
			},
			"name":"Mask",
			"normalTexture":{
				"index":21,
				"scale":0
			},
			"pbrMetallicRoughness":{
				"baseColorTexture":{
					"index":22
				},
				"metallicFactor":0,
				"metallicRoughnessTexture":{
					"index":23
				}
			}
		}
	],
	"meshes":[
		{
			"name":"Doctor Blender Character Blender",
			"primitives":[
				{
					"attributes":{
						"POSITION":0,
						"NORMAL":1,
						"TEXCOORD_0":2
					},
					"indices":3,
					"material":0
				},
				{
					"attributes":{
						"POSITION":4,
						"NORMAL":5,
						"TEXCOORD_0":6
					},
					"indices":7,
					"material":1
				},
				{
					"attributes":{
						"POSITION":8,
						"NORMAL":9,
						"TEXCOORD_0":10
					},
					"indices":11,
					"material":2
				},
				{
					"attributes":{
						"POSITION":12,
						"NORMAL":13,
						"TEXCOORD_0":14
					},
					"indices":15,
					"material":3
				},
				{
					"attributes":{
						"POSITION":16,
						"NORMAL":17,
						"TEXCOORD_0":18
					},
					"indices":19,
					"material":4
				},
				{
					"attributes":{
						"POSITION":20,
						"NORMAL":21,
						"TEXCOORD_0":22
					},
					"indices":23,
					"material":5
				}
			]
		}
	],
	"textures":[
		{
			"sampler":0,
			"source":0
		},
		{
			"sampler":0,
			"source":1
		},
		{
			"sampler":0,
			"source":2
		},
		{
			"sampler":0,
			"source":3
		},
		{
			"sampler":0,
			"source":4
		},
		{
			"sampler":0,
			"source":5
		},
		{
			"sampler":0,
			"source":6
		},
		{
			"sampler":0,
			"source":7
		},
		{
			"sampler":0,
			"source":8
		},
		{
			"sampler":0,
			"source":9
		},
		{
			"sampler":0,
			"source":10
		},
		{
			"sampler":0,
			"source":11
		},
		{
			"sampler":0,
			"source":12
		},
		{
			"sampler":0,
			"source":13
		},
		{
			"sampler":0,
			"source":14
		},
		{
			"sampler":0,
			"source":15
		},
		{
			"sampler":0,
			"source":16
		},
		{
			"sampler":0,
			"source":17
		},
		{
			"sampler":0,
			"source":18
		},
		{
			"sampler":0,
			"source":19
		},
		{
			"sampler":0,
			"source":20
		},
		{
			"sampler":0,
			"source":21
		},
		{
			"sampler":0,
			"source":22
		},
		{
			"sampler":0,
			"source":23
		}
	],
	"images":[
		{
			"mimeType":"image/png",
			"name":"Doctor Blender Character Blender_Body_specular",
			"uri":"Doctor%20Blender%20Character%20Blender_Body_specular.png"
		},
		{
			"mimeType":"image/png",
			"name":"Doctor Blender Character Blender_Body_normal",
			"uri":"Doctor%20Blender%20Character%20Blender_Body_normal.png"
		},
		{
			"mimeType":"image/png",
			"name":"Doctor Blender Character Blender_Body_diffuse",
			"uri":"Doctor%20Blender%20Character%20Blender_Body_diffuse.png"
		},
		{
			"mimeType":"image/png",
			"name":"Doctor Blender Character Blender_Body_gloss",
			"uri":"Doctor%20Blender%20Character%20Blender_Body_gloss.png"
		},
		{
			"mimeType":"image/png",
			"name":"Doctor Blender Character Blender_Top_specular",
			"uri":"Doctor%20Blender%20Character%20Blender_Top_specular.png"
		},
		{
			"mimeType":"image/png",
			"name":"Doctor Blender Character Blender_Top_normal",
			"uri":"Doctor%20Blender%20Character%20Blender_Top_normal.png"
		},
		{
			"mimeType":"image/png",
			"name":"Doctor Blender Character Blender_Top_diffuse",
			"uri":"Doctor%20Blender%20Character%20Blender_Top_diffuse.png"
		},
		{
			"mimeType":"image/png",
			"name":"Doctor Blender Character Blender_Top_gloss",
			"uri":"Doctor%20Blender%20Character%20Blender_Top_gloss.png"
		},
		{
			"mimeType":"image/png",
			"name":"Doctor Blender Character Blender_Shoes_specular",
			"uri":"Doctor%20Blender%20Character%20Blender_Shoes_specular.png"
		},
		{
			"mimeType":"image/png",
			"name":"Doctor Blender Character Blender_Shoes_normal",
			"uri":"Doctor%20Blender%20Character%20Blender_Shoes_normal.png"
		},
		{
			"mimeType":"image/png",
			"name":"Doctor Blender Character Blender_Shoes_diffuse",
			"uri":"Doctor%20Blender%20Character%20Blender_Shoes_diffuse.png"
		},
		{
			"mimeType":"image/png",
			"name":"Doctor Blender Character Blender_Shoes_gloss",
			"uri":"Doctor%20Blender%20Character%20Blender_Shoes_gloss.png"
		},
		{
			"mimeType":"image/png",
			"name":"Doctor Blender Character Blender_Hat_specular",
			"uri":"Doctor%20Blender%20Character%20Blender_Hat_specular.png"
		},
		{
			"mimeType":"image/png",
			"name":"Doctor Blender Character Blender_Hat_normal",
			"uri":"Doctor%20Blender%20Character%20Blender_Hat_normal.png"
		},
		{
			"mimeType":"image/png",
			"name":"Doctor Blender Character Blender_Hat_diffuse",
			"uri":"Doctor%20Blender%20Character%20Blender_Hat_diffuse.png"
		},
		{
			"mimeType":"image/png",
			"name":"Doctor Blender Character Blender_Hat_gloss",
			"uri":"Doctor%20Blender%20Character%20Blender_Hat_gloss.png"
		},
		{
			"mimeType":"image/png",
			"name":"Doctor Blender Character Blender_Bottom_specular",
			"uri":"Doctor%20Blender%20Character%20Blender_Bottom_specular.png"
		},
		{
			"mimeType":"image/png",
			"name":"Doctor Blender Character Blender_Bottom_normal",
			"uri":"Doctor%20Blender%20Character%20Blender_Bottom_normal.png"
		},
		{
			"mimeType":"image/png",
			"name":"Doctor Blender Character Blender_Bottom_diffuse",
			"uri":"Doctor%20Blender%20Character%20Blender_Bottom_diffuse.png"
		},
		{
			"mimeType":"image/png",
			"name":"Doctor Blender Character Blender_Bottom_gloss",
			"uri":"Doctor%20Blender%20Character%20Blender_Bottom_gloss.png"
		},
		{
			"mimeType":"image/png",
			"name":"Doctor Blender Character Blender_Mask_specular",
			"uri":"Doctor%20Blender%20Character%20Blender_Mask_specular.png"
		},
		{
			"mimeType":"image/png",
			"name":"Doctor Blender Character Blender_Mask_normal",
			"uri":"Doctor%20Blender%20Character%20Blender_Mask_normal.png"
		},
		{
			"mimeType":"image/png",
			"name":"Doctor Blender Character Blender_Mask_diffuse",
			"uri":"Doctor%20Blender%20Character%20Blender_Mask_diffuse.png"
		},
		{
			"mimeType":"image/png",
			"name":"Doctor Blender Character Blender_Mask_gloss",
			"uri":"Doctor%20Blender%20Character%20Blender_Mask_gloss.png"
		}
	],
	"accessors":[
		{
			"bufferView":0,
			"componentType":5126,
			"count":5062,
			"max":[
				97.64219665527344,
				13.386289596557617,
				-4.449325084686279
			],
			"min":[
				-97.59225463867188,
				-13.495905876159668,
				-169.87417602539062
			],
			"type":"VEC3"
		},
		{
			"bufferView":1,
			"componentType":5126,
			"count":5062,
			"type":"VEC3"
		},
		{
			"bufferView":2,
			"componentType":5126,
			"count":5062,
			"type":"VEC2"
		},
		{
			"bufferView":3,
			"componentType":5123,
			"count":26466,
			"type":"SCALAR"
		},
		{
			"bufferView":4,
			"componentType":5126,
			"count":961,
			"max":[
				40.66777038574219,
				20.81791114807129,
				-83.9841079711914
			],
			"min":[
				-42.48708724975586,
				-14.301947593688965,
				-148.98117065429688
			],
			"type":"VEC3"
		},
		{
			"bufferView":5,
			"componentType":5126,
			"count":961,
			"type":"VEC3"
		},
		{
			"bufferView":6,
			"componentType":5126,
			"count":961,
			"type":"VEC2"
		},
		{
			"bufferView":7,
			"componentType":5123,
			"count":4770,
			"type":"SCALAR"
		},
		{
			"bufferView":8,
			"componentType":5126,
			"count":1226,
			"max":[
				16.946247100830078,
				21.872047424316406,
				1.2159090042114258
			],
			"min":[
				-16.981792449951172,
				-10.100502014160156,
				-10.998129844665527
			],
			"type":"VEC3"
		},
		{
			"bufferView":9,
			"componentType":5126,
			"count":1226,
			"type":"VEC3"
		},
		{
			"bufferView":10,
			"componentType":5126,
			"count":1226,
			"type":"VEC2"
		},
		{
			"bufferView":11,
			"componentType":5123,
			"count":5292,
			"type":"SCALAR"
		},
		{
			"bufferView":12,
			"componentType":5126,
			"count":840,
			"max":[
				9.52589225769043,
				11.884519577026367,
				-155.410888671875
			],
			"min":[
				-9.527576446533203,
				-11.02683162689209,
				-176.3733673095703
			],
			"type":"VEC3"
		},
		{
			"bufferView":13,
			"componentType":5126,
			"count":840,
			"type":"VEC3"
		},
		{
			"bufferView":14,
			"componentType":5126,
			"count":840,
			"type":"VEC2"
		},
		{
			"bufferView":15,
			"componentType":5123,
			"count":3918,
			"type":"SCALAR"
		},
		{
			"bufferView":16,
			"componentType":5126,
			"count":1186,
			"max":[
				20.461668014526367,
				20.05904769897461,
				-4.733135223388672
			],
			"min":[
				-21.017070770263672,
				-14.230785369873047,
				-104.12325286865234
			],
			"type":"VEC3"
		},
		{
			"bufferView":17,
			"componentType":5126,
			"count":1186,
			"type":"VEC3"
		},
		{
			"bufferView":18,
			"componentType":5126,
			"count":1186,
			"type":"VEC2"
		},
		{
			"bufferView":19,
			"componentType":5123,
			"count":5952,
			"type":"SCALAR"
		},
		{
			"bufferView":20,
			"componentType":5126,
			"count":652,
			"max":[
				8.08455753326416,
				14.628691673278809,
				-147.5366973876953
			],
			"min":[
				-8.06908130645752,
				-8.445616722106934,
				-169.70361328125
			],
			"type":"VEC3"
		},
		{
			"bufferView":21,
			"componentType":5126,
			"count":652,
			"type":"VEC3"
		},
		{
			"bufferView":22,
			"componentType":5126,
			"count":652,
			"type":"VEC2"
		},
		{
			"bufferView":23,
			"componentType":5123,
			"count":2778,
			"type":"SCALAR"
		}
	],
	"bufferViews":[
		{
			"buffer":0,
			"byteLength":60744,
			"byteOffset":0,
			"target":34962
		},
		{
			"buffer":0,
			"byteLength":60744,
			"byteOffset":60744,
			"target":34962
		},
		{
			"buffer":0,
			"byteLength":40496,
			"byteOffset":121488,
			"target":34962
		},
		{
			"buffer":0,
			"byteLength":52932,
			"byteOffset":161984,
			"target":34963
		},
		{
			"buffer":0,
			"byteLength":11532,
			"byteOffset":214916,
			"target":34962
		},
		{
			"buffer":0,
			"byteLength":11532,
			"byteOffset":226448,
			"target":34962
		},
		{
			"buffer":0,
			"byteLength":7688,
			"byteOffset":237980,
			"target":34962
		},
		{
			"buffer":0,
			"byteLength":9540,
			"byteOffset":245668,
			"target":34963
		},
		{
			"buffer":0,
			"byteLength":14712,
			"byteOffset":255208,
			"target":34962
		},
		{
			"buffer":0,
			"byteLength":14712,
			"byteOffset":269920,
			"target":34962
		},
		{
			"buffer":0,
			"byteLength":9808,
			"byteOffset":284632,
			"target":34962
		},
		{
			"buffer":0,
			"byteLength":10584,
			"byteOffset":294440,
			"target":34963
		},
		{
			"buffer":0,
			"byteLength":10080,
			"byteOffset":305024,
			"target":34962
		},
		{
			"buffer":0,
			"byteLength":10080,
			"byteOffset":315104,
			"target":34962
		},
		{
			"buffer":0,
			"byteLength":6720,
			"byteOffset":325184,
			"target":34962
		},
		{
			"buffer":0,
			"byteLength":7836,
			"byteOffset":331904,
			"target":34963
		},
		{
			"buffer":0,
			"byteLength":14232,
			"byteOffset":339740,
			"target":34962
		},
		{
			"buffer":0,
			"byteLength":14232,
			"byteOffset":353972,
			"target":34962
		},
		{
			"buffer":0,
			"byteLength":9488,
			"byteOffset":368204,
			"target":34962
		},
		{
			"buffer":0,
			"byteLength":11904,
			"byteOffset":377692,
			"target":34963
		},
		{
			"buffer":0,
			"byteLength":7824,
			"byteOffset":389596,
			"target":34962
		},
		{
			"buffer":0,
			"byteLength":7824,
			"byteOffset":397420,
			"target":34962
		},
		{
			"buffer":0,
			"byteLength":5216,
			"byteOffset":405244,
			"target":34962
		},
		{
			"buffer":0,
			"byteLength":5556,
			"byteOffset":410460,
			"target":34963
		}
	],
	"samplers":[
		{
			"magFilter":9729,
			"minFilter":9987
		}
	],
	"buffers":[
		{
			"byteLength":416016,
			"uri":"Doctor%20Character%20glTF.bin"
		}
	]
}
